<?xml version="1.0" standalone="no"?>
<!DOCTYPE svg PUBLIC "-//W3C//DTD SVG 20010904//EN"
 "http://www.w3.org/TR/2001/REC-SVG-20010904/DTD/svg10.dtd">
<svg version="1.0" xmlns="http://www.w3.org/2000/svg"
 width="256.000000pt" height="256.000000pt" viewBox="0 0 256.000000 256.000000"
 preserveAspectRatio="xMidYMid meet">
<metadata>
Created by potrace 1.14, written by Peter Selinger 2001-2017
</metadata>
<g transform="translate(0.000000,256.000000) scale(0.100000,-0.100000)"
fill="#000000" stroke="none">
<path d="M1183 2342 c-74 -26 -117 -63 -176 -150 -29 -43 -84 -108 -122 -147
-139 -138 -187 -274 -216 -615 -21 -248 -4 -457 52 -632 l21 -67 -28 -48 c-15
-26 -49 -69 -76 -95 -26 -26 -48 -51 -48 -56 0 -11 48 -22 99 -22 34 0 121 19
164 35 13 6 21 -2 37 -38 11 -25 25 -72 31 -104 22 -127 45 -152 151 -167 29
-4 61 -18 83 -36 41 -32 65 -30 65 6 0 28 -2 28 45 8 48 -20 90 -6 80 26 -6
17 -2 20 29 20 28 0 36 4 36 18 0 11 -9 27 -21 38 -18 16 -37 19 -135 19 -69
0 -117 4 -124 11 -6 6 -10 38 -8 75 l3 64 69 8 c76 9 88 3 84 -43 -4 -59 33
-90 127 -105 22 -4 52 -18 67 -32 30 -29 58 -25 58 8 0 16 4 20 18 14 9 -4 32
-9 50 -12 28 -5 34 -2 39 16 4 14 13 21 29 21 31 0 42 26 20 48 -13 13 -42 18
-129 22 l-112 5 -3 57 c-3 61 -4 59 65 108 98 69 202 247 249 426 23 86 27
120 27 254 1 136 -2 168 -26 262 -32 130 -84 267 -137 364 -64 115 -56 138 63
179 77 25 154 34 196 20 29 -9 28 15 -1 42 -47 42 -80 55 -169 69 -67 10 -105
21 -143 44 -120 72 -173 92 -254 96 -58 4 -89 0 -129 -14z m272 -441 l120 -6
38 -75 c82 -165 127 -353 128 -533 0 -187 -27 -304 -108 -458 -52 -99 -109
-170 -166 -206 -58 -36 -167 -71 -266 -85 -108 -15 -121 -25 -121 -94 0 -53 0
-53 -37 -63 -63 -18 -71 -15 -78 26 -10 56 -25 105 -42 132 -10 16 -16 54 -18
110 -1 55 -10 110 -24 154 -12 38 -20 71 -17 74 2 3 18 -22 35 -54 40 -81 77
-123 107 -123 49 0 167 132 228 258 51 102 69 186 69 317 0 132 -23 234 -88
401 -47 120 -49 149 -16 192 20 27 88 53 116 45 11 -4 74 -9 140 -12z m-45
-1395 c0 -36 -15 -46 -73 -46 -25 0 -28 3 -25 27 2 20 12 29 38 39 54 19 60
17 60 -20z"/>
</g>
</svg>
